<?xml version="1.0" encoding="utf-8"?>
<!-- Generator: Adobe Illustrator 17.1.0, SVG Export Plug-In . SVG Version: 6.00 Build 0)  -->
<!DOCTYPE svg PUBLIC "-//W3C//DTD SVG 1.1//EN" "http://www.w3.org/Graphics/SVG/1.1/DTD/svg11.dtd">
<svg version="1.1" id="Layer_1" xmlns="http://www.w3.org/2000/svg" xmlns:xlink="http://www.w3.org/1999/xlink" x="0px" y="0px"
	 width="13px" height="13px" viewBox="0 0 13 13" enable-background="new 0 0 13 13" xml:space="preserve">
<g>
	<g>
		<path fill="#1D1D1B" d="M9.81,4.627H3.19c-0.193,0-0.35-0.156-0.35-0.35s0.157-0.35,0.35-0.35H9.81c0.193,0,0.35,0.156,0.35,0.35
			S10.004,4.627,9.81,4.627z"/>
	</g>
	<g>
		<path fill="#1D1D1B" d="M9.81,6.85H3.19c-0.193,0-0.35-0.156-0.35-0.35s0.157-0.35,0.35-0.35H9.81c0.193,0,0.35,0.156,0.35,0.35
			S10.004,6.85,9.81,6.85z"/>
	</g>
	<g>
		<path fill="#1D1D1B" d="M9.81,9.072H3.19c-0.193,0-0.35-0.156-0.35-0.35s0.157-0.35,0.35-0.35H9.81c0.193,0,0.35,0.156,0.35,0.35
			S10.004,9.072,9.81,9.072z"/>
	</g>
</g>
</svg>
