<?xml version="1.0" encoding="utf-8"?>
<!-- Generator: Adobe Illustrator 17.1.0, SVG Export Plug-In . SVG Version: 6.00 Build 0)  -->
<!DOCTYPE svg PUBLIC "-//W3C//DTD SVG 1.1//EN" "http://www.w3.org/Graphics/SVG/1.1/DTD/svg11.dtd">
<svg version="1.1" id="Layer_1" xmlns="http://www.w3.org/2000/svg" xmlns:xlink="http://www.w3.org/1999/xlink" x="0px" y="0px"
	 width="13px" height="13px" viewBox="0 0 13 13" enable-background="new 0 0 13 13" xml:space="preserve">
<g>
	<g>
		<g>
			<path fill="#1D1D1B" d="M6.5,6.395c-0.193,0-0.35-0.156-0.35-0.35V2.375c0-0.193,0.157-0.35,0.35-0.35s0.35,0.156,0.35,0.35
				v3.671C6.85,6.239,6.694,6.395,6.5,6.395z"/>
		</g>
	</g>
	<g>
		<path fill="#1D1D1B" d="M6.5,10.975c-2.257,0-4.094-1.836-4.094-4.094c0-1.572,0.918-3.024,2.338-3.699
			c0.173-0.081,0.383-0.009,0.466,0.166s0.009,0.384-0.166,0.467c-1.178,0.56-1.938,1.763-1.938,3.066
			c0,1.871,1.522,3.395,3.394,3.395c1.871,0,3.394-1.523,3.394-3.395c0-1.328-0.781-2.541-1.99-3.091
			C7.728,3.71,7.65,3.503,7.73,3.328C7.81,3.151,8.017,3.073,8.194,3.154c1.458,0.663,2.4,2.126,2.4,3.728
			C10.594,9.139,8.758,10.975,6.5,10.975z"/>
	</g>
</g>
</svg>
